<svg width="46" height="46" viewBox="0 0 46 46" fill="none" xmlns="http://www.w3.org/2000/svg"><path d="M42 0H4C1.79086 0 0 1.79086 0 4V42C0 44.2091 1.79086 46 4 46H42C44.2091 46 46 44.2091 46 42V4C46 1.79086 44.2091 0 42 0Z" fill="#FEC43B"/><path d="M17.9855 19.941C18.4685 20.976 19.0435 21.988 19.8025 22.839C20.0785 22.333 20.2855 21.804 20.5155 21.275C21.4125 18.929 21.8955 16.445 22.2175 13.984C22.4475 12.121 22.6085 10.212 22.5855 8.349C20.4465 8.395 18.2615 8.947 16.3295 9.913C16.2835 9.936 16.2145 9.982 16.1685 10.028C16.1225 10.396 16.1685 10.787 16.1455 11.155C16.2145 14.145 16.7435 17.181 17.9855 19.941Z" fill="white"/><path d="M24.9778 19.826C25.2998 20.838 25.6678 21.873 26.1738 22.816C26.7258 22.172 27.1858 21.459 27.5998 20.723C28.8188 18.446 29.4628 15.87 29.7158 13.294C29.8078 12.213 29.8768 11.109 29.8308 10.028C29.3478 9.72899 28.7958 9.52199 28.2898 9.29199C26.7258 8.69399 25.0698 8.37199 23.3907 8.32599C23.3677 9.24599 23.4137 10.166 23.4827 11.063C23.6897 14.03 24.1038 16.974 24.9778 19.826Z" fill="white"/><path d="M12.604 21.275C13.708 19.642 14.375 17.756 14.812 15.847C15.203 14.076 15.41 12.259 15.41 10.442C15.295 10.488 15.18 10.557 15.088 10.626C13.225 11.822 11.615 13.432 10.442 15.341C8.71696 18.124 7.98096 21.551 8.39496 24.794C10.12 24.081 11.569 22.793 12.604 21.275Z" fill="white"/><path d="M35.9948 16.146C34.9598 14.168 33.4418 12.42 31.6248 11.109C31.2798 10.879 30.9578 10.626 30.5898 10.442C30.5898 11.891 30.7278 13.363 30.9808 14.812C31.3718 16.997 32.0618 19.182 33.2578 21.045C34.2928 22.678 35.7878 24.058 37.6048 24.794C37.9728 21.85 37.3978 18.768 35.9948 16.146Z" fill="white"/><path d="M18.5838 25.507C18.4918 25.323 18.3078 25.185 18.1698 25.024C17.5488 24.311 17.0428 23.506 16.6058 22.678C16.2608 22.011 16.0078 21.298 15.7778 20.608C15.6398 20.815 15.5708 21.045 15.5018 21.275C15.0878 22.448 14.4898 23.575 13.7308 24.564C12.5578 26.082 10.9938 27.37 9.17676 28.037C9.19976 28.175 9.24576 28.313 9.29176 28.428C9.75176 29.578 10.3498 30.682 11.0858 31.671C11.3848 32.039 11.6608 32.453 12.0058 32.775C12.2358 32.706 12.4198 32.568 12.6268 32.453C14.8348 31.027 16.5828 28.957 17.9168 26.726C18.1698 26.335 18.4228 25.944 18.5838 25.507Z" fill="white"/><path d="M23.1843 21.367C23.1153 21.114 23.1383 20.838 22.9773 20.631C22.8163 20.838 22.8393 21.137 22.7703 21.367C22.2873 23.851 21.5513 26.312 20.5623 28.635C19.4353 31.257 17.9633 33.787 15.8933 35.788C15.8013 35.903 16.0083 35.949 16.0773 35.995C18.1473 37.076 20.4933 37.674 22.8393 37.697C25.3463 37.72 27.8993 37.099 30.0843 35.857C28.0143 33.81 26.4733 31.257 25.3463 28.589C24.4263 26.266 23.6673 23.851 23.1843 21.367Z" fill="white"/><path d="M30.4748 21.252C30.4058 21.045 30.3598 20.815 30.2218 20.631C30.0838 20.861 30.0148 21.137 29.9228 21.39C29.3708 22.885 28.5428 24.265 27.4618 25.438C27.3468 25.53 27.4388 25.645 27.4848 25.737C27.9678 26.657 28.5198 27.531 29.1178 28.359C30.2908 29.946 31.6938 31.395 33.3728 32.499C33.5568 32.614 33.7408 32.752 33.9478 32.798C34.1088 32.683 34.2238 32.499 34.3388 32.361C35.1208 31.418 35.7648 30.383 36.2938 29.279C36.4778 28.888 36.6618 28.474 36.7768 28.06C35.7878 27.692 34.8908 27.163 34.0858 26.496C32.4298 25.116 31.1878 23.276 30.4748 21.252Z" fill="white"/></svg>