<svg width="46" height="46" viewBox="0 0 46 46" fill="none" xmlns="http://www.w3.org/2000/svg"><path d="M42 0H4C1.79086 0 0 1.79086 0 4V42C0 44.2091 1.79086 46 4 46H42C44.2091 46 46 44.2091 46 42V4C46 1.79086 44.2091 0 42 0Z" fill="#1E4598"/><path d="M28.2443 15.134L23.0003 8.28L17.7563 15.134C13.8003 20.309 12.2363 22.632 12.2363 26.105C12.2363 29.049 12.9953 30.475 15.7553 32.476L23.0003 37.72L30.2453 32.476C33.0053 30.475 33.7643 29.049 33.7643 26.105C33.7643 22.632 32.2003 20.309 28.2443 15.134ZM21.3903 32.154L21.3443 33.58C21.3443 33.764 21.2293 33.787 21.1143 33.695C19.2283 32.338 17.0203 30.728 17.0203 30.728C14.7203 29.072 14.5823 27.278 14.5823 26.059C14.5823 25.231 14.6973 24.334 15.0883 23.414C15.1113 23.345 15.1573 23.23 15.2263 23.23C15.2723 23.23 15.2953 23.253 15.3183 23.299C16.1233 24.472 17.4113 26.381 18.6993 27.945C21.1833 30.935 21.4363 30.682 21.3903 32.154ZM23.0003 29.463C22.9773 29.463 22.9543 29.44 22.9313 29.44L17.8483 23.414C17.2733 22.724 16.9513 21.965 16.9513 21.206C16.9513 20.7 17.1353 20.171 17.5033 19.688L22.9313 12.236C22.9543 12.213 22.9773 12.19 23.0003 12.19C23.0233 12.19 23.0463 12.213 23.0693 12.236L28.4973 19.688C28.8423 20.171 29.0493 20.7 29.0493 21.206C29.0493 21.965 28.7503 22.724 28.1523 23.414L23.0693 29.44C23.0463 29.463 23.0233 29.463 23.0003 29.463ZM28.9803 30.728C28.9803 30.728 26.7493 32.338 24.8863 33.695C24.7713 33.787 24.6793 33.764 24.6563 33.58L24.6103 32.154C24.5643 30.682 24.8173 30.935 27.3013 27.945C28.5893 26.381 29.8773 24.495 30.6823 23.299C30.7053 23.253 30.7513 23.23 30.7743 23.23C30.8203 23.23 30.8893 23.345 30.9123 23.414C31.2803 24.334 31.4183 25.231 31.4183 26.059C31.4183 27.278 31.2803 29.072 28.9803 30.728Z" fill="white"/></svg>