<svg width="46" height="46" viewBox="0 0 46 46" fill="none" xmlns="http://www.w3.org/2000/svg"><path d="M42 0H4C1.79086 0 0 1.79086 0 4V42C0 44.2091 1.79086 46 4 46H42C44.2091 46 46 44.2091 46 42V4C46 1.79086 44.2091 0 42 0Z" fill="#1583C7"/><path d="M16.9743 28.635C16.3073 29.486 15.2723 30.015 14.1223 30.015C12.1213 30.015 10.4883 28.382 10.4883 26.381C10.4883 24.38 12.1213 22.747 14.1223 22.747C15.2033 22.747 16.1923 23.23 16.8593 23.989L18.2163 22.264C17.1583 21.206 15.7093 20.562 14.1223 20.562C10.8793 20.562 8.28027 23.161 8.28027 26.381C8.28027 29.601 10.8793 32.2 14.0993 32.2C15.7093 32.2 17.1583 31.556 18.2163 30.498L16.9743 28.635Z" fill="white"/><path d="M21.8506 20.792H19.3896V32.085H21.8506V20.792Z" fill="white"/><path d="M35.2598 20.838H32.7988V32.131H35.2598V20.838Z" fill="white"/><path d="M28.5893 32.2C26.4733 32.2 25.9673 30.406 25.9213 29.371H25.8983V22.931H23.7363V20.861H25.8983V18.676L28.0833 17.342L28.0143 19.021V20.861H30.2223V22.931H28.0143V28.658C27.9913 28.727 27.9913 28.819 27.9913 28.911C27.9913 29.003 27.9913 29.072 28.0143 29.164V29.302C28.1063 29.808 28.4283 30.222 28.8883 30.406C29.0723 30.475 29.2563 30.521 29.4633 30.521C29.9233 30.521 30.3373 30.314 30.6133 29.992C30.6823 29.923 30.7283 29.831 30.7743 29.762C30.7973 29.693 30.8433 32.2 28.5893 32.2Z" fill="white"/><path d="M28.0376 28.635V29.118C28.0146 29.049 28.0146 28.957 28.0146 28.865C28.0146 28.796 28.0146 28.704 28.0376 28.635Z" fill="white"/><path d="M27.715 13.777C23.552 13.777 19.849 15.893 17.71 19.113H21.183C22.862 17.48 25.162 16.445 27.692 16.445C30.222 16.445 32.522 17.457 34.201 19.113H37.72C35.581 15.939 31.901 13.777 27.715 13.777Z" fill="white"/></svg>