<svg width="28" height="22" viewBox="0 0 28 22" fill="none" xmlns="http://www.w3.org/2000/svg"><path d="M27.6506 18.6948C27.6506 20.2239 26.4864 21.4636 25.0506 21.4636H2.95059C1.51474 21.4636 0.350586 20.2239 0.350586 18.6948V3.46622C0.350586 1.93713 1.51474 0.697388 2.95059 0.697388H25.0506C26.4864 0.697388 27.6506 1.93713 27.6506 3.46622V18.6948Z" fill="#CFD8DC"/><path d="M5.33505 3.46622C3.9772 3.46622 2.9502 4.3827 2.9502 5.96993V18.6948H7.16414C8.2243 18.6948 9.4502 17.635 9.4502 16.2603V3.46622H5.33505Z" fill="#3F51B5"/><path d="M13.1353 3.46622C11.7775 3.46622 10.7505 4.3827 10.7505 5.96993V18.6948H14.9644C16.0246 18.6948 17.2505 17.635 17.2505 16.2603V3.46622H13.1353Z" fill="#E53935"/><path d="M20.9351 3.46622C19.5773 3.46622 18.5503 4.3827 18.5503 5.96993V18.6948H22.7642C23.8244 18.6948 25.0503 17.635 25.0503 16.2603V3.46622H20.9351Z" fill="#388E3C"/><path d="M8.67458 11.3941C8.67458 12.6643 7.13473 13.3344 6.00893 13.3344C4.78433 13.3344 3.69038 12.5591 3.45703 11.5727H4.28513C4.38393 12.1721 4.94878 12.5937 5.57668 12.5937C6.27218 12.5937 6.76878 12.0648 6.76878 11.3948V9.10289H8.67393V11.3941H8.67458ZM23.4946 11.1068C23.9899 11.1068 24.3363 10.5814 24.3363 10.0554C24.3363 9.5279 23.9054 9.07104 23.4101 9.07104H19.3398V13.1218H23.4946C24.0555 13.1218 24.4839 12.5978 24.4845 12.0704C24.4845 11.545 24.0562 11.1068 23.4946 11.1068ZM20.9238 9.49329H22.2102C22.5378 9.49329 22.8348 9.80686 22.8348 10.1571C22.8348 10.5095 22.5378 10.8265 22.2102 10.8265H20.9238V9.49329ZM22.242 12.7024H20.9245V11.3678H22.242C22.5722 11.3678 22.8693 11.6834 22.8693 12.0358C22.8693 12.3853 22.5722 12.7024 22.242 12.7024ZM16.4778 9.81794C15.7186 9.63104 14.9919 9.52236 14.6286 9.52236C13.8369 9.52236 13.2109 10.2263 13.2109 11.1165C13.2109 12.0109 13.8369 12.7162 14.6286 12.7162C14.9919 12.7162 15.7186 12.6421 16.4778 12.4532V13.1599H13.3091C12.3198 13.1599 11.4956 12.231 11.4956 11.1165C11.4956 10.0041 12.3198 9.07589 13.3091 9.07589H16.4778V9.81794Z" fill="#FAFAFA"/></svg>