<svg width="46" height="46" viewBox="0 0 46 46" fill="none" xmlns="http://www.w3.org/2000/svg"><path d="M42 0H4C1.79086 0 0 1.79086 0 4V42C0 44.2091 1.79086 46 4 46H42C44.2091 46 46 44.2091 46 42V4C46 1.79086 44.2091 0 42 0Z" fill="#138F2D"/><path d="M29.9456 30.13C29.3246 29.808 28.6576 29.486 27.6686 29.486C26.7946 29.486 26.0816 29.808 25.4146 30.13C24.7016 30.452 23.9656 30.797 22.9766 30.797C22.1026 30.797 21.4586 30.498 20.7686 30.176C20.0556 29.854 19.3196 29.509 18.3076 29.509C17.4336 29.509 16.7206 29.831 16.0306 30.13C15.3176 30.452 14.5586 30.797 13.5926 30.797C13.5466 30.797 13.4776 30.797 13.4316 30.797C13.5236 30.912 13.6386 31.05 13.7306 31.165C14.7196 31.142 15.4556 30.797 16.1686 30.475C16.8586 30.176 17.4796 29.877 18.2846 29.877C19.2046 29.877 19.8716 30.199 20.5846 30.521C21.2746 30.843 22.0106 31.188 22.9536 31.188C24.0116 31.188 24.7936 30.82 25.5526 30.475C26.2196 30.176 26.8636 29.877 27.6686 29.877C28.5656 29.877 29.1636 30.176 29.7846 30.498C30.4516 30.843 31.1646 31.188 32.3146 31.188C32.4296 31.073 32.5216 30.935 32.6366 30.797C32.5446 30.797 32.4296 30.82 32.3376 30.82C31.2566 30.774 30.5896 30.452 29.9456 30.13Z" fill="white"/><path d="M27.6693 30.176C26.7953 30.176 26.0823 30.498 25.4153 30.82C24.7023 31.142 23.9663 31.487 22.9773 31.487C22.1033 31.487 21.4593 31.188 20.7693 30.866C20.0563 30.544 19.3203 30.199 18.3083 30.199C17.4343 30.199 16.7213 30.521 16.0313 30.82C15.4333 31.096 14.7893 31.372 14.0303 31.464C14.1453 31.579 14.2373 31.694 14.3523 31.786C15.0653 31.671 15.6403 31.418 16.1923 31.165C16.8823 30.866 17.5033 30.567 18.3083 30.567C19.2283 30.567 19.8953 30.889 20.6083 31.211C21.2983 31.533 22.0343 31.878 22.9773 31.878C24.0353 31.878 24.8173 31.51 25.5763 31.165C26.2433 30.843 26.8873 30.567 27.6923 30.567C28.5893 30.567 29.1873 30.866 29.8083 31.188C30.3603 31.464 30.9123 31.74 31.7173 31.855C31.8323 31.74 31.9473 31.625 32.0393 31.51C31.1423 31.464 30.5443 31.142 29.9693 30.866C29.3023 30.498 28.6583 30.176 27.6693 30.176Z" fill="white"/><path d="M27.6685 30.866C26.7945 30.866 26.0815 31.188 25.4145 31.51C24.7015 31.832 23.9655 32.177 22.9765 32.177C22.1025 32.177 21.4585 31.878 20.7685 31.556C20.0555 31.234 19.3195 30.889 18.3075 30.889C17.4335 30.889 16.7205 31.211 16.0305 31.51C15.5935 31.717 15.1335 31.924 14.6045 32.039C14.7195 32.131 14.8115 32.246 14.9265 32.338C15.3635 32.2 15.7775 32.016 16.1685 31.855C16.8585 31.556 17.4795 31.257 18.2845 31.257C19.2045 31.257 19.8715 31.579 20.5845 31.901C21.2745 32.223 22.0105 32.568 22.9535 32.568C24.0115 32.568 24.7935 32.2 25.5525 31.855C26.2195 31.556 26.8635 31.257 27.6685 31.257C28.5655 31.257 29.1635 31.556 29.7845 31.855C30.1755 32.062 30.5665 32.246 31.0725 32.384C31.1875 32.292 31.3025 32.177 31.4175 32.085C30.8425 31.97 30.4055 31.74 29.9685 31.51C29.3015 31.211 28.6575 30.866 27.6685 30.866Z" fill="white"/><path d="M27.6682 31.579C26.7942 31.579 26.0812 31.901 25.4142 32.223C24.7012 32.545 23.9652 32.89 22.9762 32.89C22.1022 32.89 21.4582 32.591 20.7681 32.269C20.0552 31.947 19.3191 31.602 18.3071 31.602C17.4331 31.602 16.7201 31.924 16.0301 32.223C15.7541 32.338 15.5011 32.476 15.2021 32.568C15.3171 32.66 15.4321 32.752 15.5471 32.844C15.7771 32.752 15.9841 32.66 16.1911 32.568C16.8811 32.269 17.5021 31.97 18.3071 31.97C19.2271 31.97 19.8942 32.292 20.6072 32.614C21.2972 32.936 22.0332 33.281 22.9762 33.281C24.0342 33.281 24.8162 32.913 25.5752 32.568C26.2422 32.246 26.8862 31.97 27.6912 31.97C28.5882 31.97 29.1862 32.269 29.8072 32.591C30.0142 32.706 30.2442 32.821 30.4742 32.913C30.5892 32.821 30.7042 32.729 30.8192 32.637C30.5202 32.522 30.2442 32.384 29.9682 32.246C29.3012 31.901 28.6572 31.579 27.6682 31.579Z" fill="white"/><path d="M27.6688 32.269C26.7948 32.269 26.0818 32.591 25.4148 32.913C24.7018 33.235 23.9658 33.58 22.9768 33.58C22.1028 33.58 21.4588 33.281 20.7688 32.959C20.0558 32.614 19.3198 32.292 18.3078 32.292C17.4338 32.292 16.7208 32.614 16.0308 32.913C15.9618 32.959 15.8698 32.982 15.8008 33.028C15.9158 33.12 16.0308 33.189 16.1458 33.281C16.1688 33.281 16.1688 33.281 16.1918 33.258C16.8818 32.959 17.5028 32.66 18.3078 32.66C19.2278 32.66 19.8948 32.982 20.6078 33.304C21.2978 33.626 22.0338 33.971 22.9768 33.971C24.0348 33.971 24.8168 33.603 25.5758 33.258C26.2428 32.936 26.8868 32.66 27.6918 32.66C28.5888 32.66 29.1868 32.959 29.8078 33.281C29.8308 33.304 29.8538 33.304 29.8998 33.327C30.0148 33.258 30.1298 33.166 30.2448 33.097C30.1528 33.051 30.0608 33.005 29.9918 32.959C29.3018 32.614 28.6578 32.269 27.6688 32.269Z" fill="white"/><path d="M25.369 33.603C24.656 33.925 23.92 34.27 22.931 34.27C22.057 34.27 21.413 33.971 20.723 33.649C20.01 33.327 19.274 32.982 18.262 32.982C17.549 32.982 16.951 33.189 16.376 33.442C16.514 33.534 16.629 33.603 16.767 33.672C17.227 33.488 17.71 33.35 18.262 33.35C19.182 33.35 19.849 33.672 20.562 33.994C21.252 34.316 21.988 34.661 22.931 34.661C23.989 34.661 24.771 34.293 25.53 33.948C26.197 33.649 26.841 33.35 27.646 33.35C28.29 33.35 28.773 33.488 29.21 33.695C29.348 33.626 29.463 33.534 29.578 33.465C29.049 33.212 28.451 32.982 27.646 32.982C26.795 32.982 26.059 33.304 25.369 33.603Z" fill="white"/><path d="M23.0003 8.28C14.8813 8.28 8.28027 14.881 8.28027 23C8.28027 31.119 14.8813 37.72 23.0003 37.72C31.1193 37.72 37.7203 31.119 37.7203 23C37.7203 14.881 31.1193 8.28 23.0003 8.28ZM23.0003 35.374C16.1693 35.374 10.6263 29.831 10.6263 23C10.6263 16.169 16.1693 10.626 23.0003 10.626C29.8313 10.626 35.3743 16.169 35.3743 23C35.3743 29.831 29.8313 35.374 23.0003 35.374Z" fill="white"/><path d="M29.8773 19.366C29.7853 19.826 29.3253 20.309 29.0723 20.516C28.4973 20.976 24.6793 23.299 24.2423 23.828C23.8053 24.357 23.7363 25.162 23.7363 25.76V30.245H24.3343C24.3343 29.854 24.3343 29.187 24.3343 29.095C24.3343 28.704 24.5643 28.083 25.0243 27.6C25.8063 26.772 27.6233 25.76 28.8423 24.886C29.8313 24.15 29.9003 23.161 29.9003 22.31C29.9003 21.597 29.9003 19.619 29.9003 19.251L29.8773 19.366Z" fill="white"/><path d="M23.7596 23.552C24.1736 23.023 28.1296 20.631 28.6816 20.171C29.2336 19.711 29.9006 19.021 29.9006 18.124C29.9006 17.365 29.9006 13.639 29.9006 13.11C29.9006 13.823 29.5096 14.352 29.0036 15.019C28.4286 15.778 25.7836 17.204 24.4726 18.124C23.1616 19.044 22.7246 19.941 22.7246 21.068C22.7246 22.011 22.7246 28.221 22.7246 30.222H23.2996C23.2996 28.911 23.2996 25.898 23.2996 25.438C23.2766 24.84 23.3226 24.081 23.7596 23.552Z" fill="white"/><path d="M20.769 18.354C19.573 17.434 17.135 15.479 16.836 15.088C16.537 14.697 15.916 14.007 15.916 13.156C15.916 13.777 15.916 17.25 15.916 17.825C15.916 18.492 16.238 19.688 17.388 20.539C18.538 21.39 20.171 22.609 20.677 23.115C21.16 23.598 21.62 24.495 21.62 25.76C21.62 26.68 21.62 29.141 21.62 30.268H22.195C22.195 28.336 22.195 22.494 22.195 21.321C22.241 19.849 21.965 19.274 20.769 18.354Z" fill="white"/></svg>