<svg width="60" height="60" viewBox="0 0 60 60" fill="none" xmlns="http://www.w3.org/2000/svg"><path d="M56 0H4C1.79086 0 0 1.79086 0 4V56C0 58.2091 1.79086 60 4 60H56C58.2091 60 60 58.2091 60 56V4C60 1.79086 58.2091 0 56 0Z" fill="#01A6E6"/><path d="M36.5293 39.6965C36.5293 39.6965 36.7285 39.3644 36.8281 39.8293C36.8281 39.8293 37.0273 42.5187 35.4668 44.1789C34.4043 45.2746 31.9473 46.8351 29.1914 46.1379C29.1914 46.1379 33.6074 45.8391 34.7363 41.4562L34.8691 40.9582C34.8027 40.9582 35.8984 40.6594 36.5293 39.6965ZM46.5898 26.1496C46.5898 26.0832 46.5898 26.05 46.5566 25.9836C46.5566 25.9836 46.4902 25.718 46.3242 25.2531C46.291 25.1867 46.2578 25.1203 46.2578 25.0539C46.2578 25.0207 46.2246 24.9875 46.2246 24.9875C45.9258 24.2902 45.3613 23.2941 44.3984 22.3312C44.3984 22.3312 45.4277 22.2648 44.2988 21.0031C44.2988 21.0031 42.4394 18.8117 38.8203 17.1183C36.8945 16.2219 34.7031 16.5871 34.9023 18.7453C35.0351 20.2394 33.6406 20.8371 32.5449 20.7043C31.25 20.5383 30.4531 19.4758 30.6855 18.6125C30.918 17.6828 31.3828 16.9523 32.1133 16.3879C32.6113 15.9894 32.9434 15.7238 33.8398 15.5578C34.3711 15.4582 35.1016 15.259 35.3008 15.8898C35.666 15.6906 36.3301 14.4289 34.1719 14.4289C34.1719 14.4289 33.8398 13.7316 33.1094 13.8644C33.1094 13.8644 30.9512 11.7394 28.5273 14.3625C28.5273 14.3625 27.5976 14.7277 27.5312 14.3625C27.7305 14.5285 28.0957 14.0305 27.6309 13.8312C27.3984 13.7316 27.1328 13.9973 27.0996 14.1965C27.0664 14.3625 27.1328 14.7609 27.5976 14.8273C27.7305 14.8605 27.9629 14.8273 27.9629 14.8273L27.7969 15.0266C27.0664 15.3254 26.4023 15.093 26.2695 14.5949C26.4355 14.6945 26.6348 14.5617 26.668 14.3957C26.7344 14.1965 26.6016 13.9309 26.3027 13.8977C25.9043 13.8312 25.7383 14.2961 25.8047 14.6945C25.9375 15.3254 26.5351 15.757 27.332 15.6242L27.1992 15.8234C27.1992 15.8234 26.4023 16.8195 25.7715 17.9484C25.1074 19.0773 22.418 20.339 22.8828 17.6164C23.0156 16.7531 21.5879 15.7238 19.0312 17.4504C17.7031 18.3801 16.043 19.7746 14.7812 22.0324C14.7812 22.0324 14.25 22.8957 15.1465 22.9289C15.1465 22.9289 13.3203 23.7922 13.2207 27.9426C13.2207 27.9426 13.2207 28.1086 13.2207 28.341C13.2207 28.4738 13.2207 28.6398 13.2207 28.7726C13.2207 29.2375 13.2539 29.7687 13.2871 30.0676C13.2871 30.0676 13.4863 32.5578 13.918 32.9894C13.918 32.9894 13.9512 32.9894 13.9844 32.9894C14.1172 33.0891 14.2832 33.1223 14.5156 32.8898C14.5156 32.923 15.0801 35.7121 16.209 38.0695C17.1387 39.9289 18.832 42.6515 18.168 43.3156C17.5039 43.9797 16.5742 42.6515 16.707 43.1828C17.0059 44.2785 18.168 44.4445 18.7656 43.9797C20.3594 42.718 18.0352 39.6965 17.3047 35.8781C18.832 35.214 18.7656 32.8234 18.7656 32.8234C18.7656 32.8234 20.9238 32.757 21.5879 30.2004C21.5879 30.2004 24.2109 30.9641 25.4727 28.673C25.4727 28.673 25.4727 28.673 25.4727 28.6398L25.5059 28.6066C25.7715 29.4035 26.2695 30.1008 26.9668 30.7316C26.9668 30.7316 26.834 31.8273 25.6055 32.2258C25.6055 32.2258 24.1113 31.5949 22.4512 32.2258C20.957 32.8234 21.5547 34.4172 22.6504 34.0187C22.3184 33.8527 22.2187 33.3215 22.75 33.1887C22.8828 33.2883 23.0156 33.3547 23.1816 33.3879C23.2148 33.3879 24.5098 33.6203 25.4394 33.2551C25.5059 33.2219 25.5723 33.2219 25.6387 33.1555H25.6719C25.7715 33.0891 25.8379 33.0226 25.9043 32.9562C26.2363 32.9894 26.4687 33.4875 26.0039 33.7199C26.9004 33.9191 27.2324 32.9562 26.8672 32.4582C26.8672 32.4582 27.0664 32.3254 27.332 32.1262C27.332 32.1262 27.6309 31.8605 27.8301 31.5285C27.8301 31.5285 28.7266 32.2258 30.3535 32.6242C30.3535 32.6242 29.4902 34.0519 28.2285 34.3176C28.2285 34.3176 26.4355 33.7199 25.207 34.4836C25.207 34.4836 24.543 34.8488 24.6426 35.5461C24.709 36.0773 25.1738 36.4758 25.8047 36.3762C25.5391 36.2433 24.9414 35.5793 25.7051 35.2805C25.8379 35.4797 26.0039 35.6125 26.2363 35.6457C26.2363 35.6457 27.3652 35.9113 28.7598 35.3137C28.8262 35.2805 28.8594 35.2805 28.9258 35.2473C28.9258 35.2473 28.959 35.2473 28.9922 35.214C29.0918 35.1476 29.1582 35.0812 29.1914 35.0148C29.5566 34.9484 30.0547 35.1144 29.8555 35.8117C30.2871 35.7453 30.9844 34.9816 29.9551 34.3508C29.9551 34.3508 30.5527 34.0519 31.0508 33.6203L31.7812 32.8898C33.209 33.089 34.2715 34.4504 34.2715 36.1105C34.2715 37.4719 33.1094 39.0656 31.8808 39.3976C31.9141 39.3976 31.9805 39.3644 32.0137 39.3644L31.8476 39.3976H31.8808C31.6816 39.4308 31.4824 39.4641 31.2168 39.4641C29.9551 39.4309 30.7187 37.9699 30.7187 37.9699C30.5195 37.9367 30.3203 38.0031 30.1543 38.2023C29.9551 38.4348 29.8887 38.8664 29.9551 39.3312C29.8887 39.298 29.8223 39.298 29.7891 39.2648C28.6934 38.8 28.7598 37.9699 28.7598 37.9699C28.4609 38.1027 28.2617 38.468 28.3613 39.0988C28.5273 39.9289 29.5898 40.2941 30.4531 40.3937C30.9512 40.8918 31.748 41.3898 33.5742 41.091C33.5742 41.091 32.7773 45.341 27.3984 45.1418C27.3984 45.1418 25.7715 44.5441 25.8379 43.1828C25.9043 41.3566 27.166 40.7258 27.166 40.7258C26.7012 40.6594 25.5723 40.7922 25.0742 42.2863C24.8418 42.9504 24.9082 44.0793 25.5059 44.843C23.4805 44.3117 21.9531 42.7844 22.584 40.6594C22.6836 40.3273 22.8828 39.9953 23.1484 39.6965C24.6758 38.2687 26.9336 39.132 26.9336 39.132C26.834 38.634 26.2031 37.9699 25.0742 37.9035C23.9121 37.8371 21.6875 38.5344 21.5215 41.2238C21.3555 43.6808 22.916 45.4738 26.8008 46.0383L26.8672 46.0715C26.8672 46.0715 29.2246 47.7316 32.5449 46.8351C32.5449 46.8351 39.2519 45.4738 37.8242 37.8039C37.8242 37.8039 39.3848 32.6906 36.0977 29.8019C38.123 31.4621 40.6133 30.4992 40.6133 30.4992C40.4473 35.1476 42.4062 35.7453 42.4062 35.7453L42.4726 35.7121C42.4726 35.7121 38.7871 43.6476 40.9453 44.6769C41.6758 45.009 42.5391 44.843 42.9707 43.9133C43.3359 43.1496 42.1738 44.6437 41.5098 44.0129C40.7129 43.216 41.709 41.3234 42.6719 39.298C44.0332 36.5754 44.9297 34.55 45.0957 33.1887C45.0957 33.1887 45.2949 33.3215 45.5273 33.2219L45.5605 33.2551C46.0918 33.1223 46.4238 30.9308 46.4902 30.5656C46.9219 28.6066 46.789 27.1125 46.5898 26.1496Z" fill="white"/></svg>