<svg width="52" height="37" viewBox="0 0 52 37" fill="none" xmlns="http://www.w3.org/2000/svg"><g clip-path="url(#clip0)"><path d="M51.3255 15.3042L42.0122 4.27123C40.5178 2.68244 38.5019 1.66847 36.3225 1.40941L13.8012 0.00647309C13.3795 -0.0415356 12.9522 0.0119463 12.5559 0.162359C12.1596 0.312772 11.806 0.555654 11.5252 0.870299C11.2444 1.18494 11.0447 1.56202 10.9433 1.96937C10.8418 2.37673 10.8416 2.80228 10.9426 3.20975L10.9873 3.48228L8.65719 3.68781C8.23266 3.70337 7.81817 3.81977 7.44882 4.02717C7.07948 4.23457 6.76614 4.52685 6.53534 4.87928C6.30454 5.2317 6.16308 5.63389 6.12293 6.05179C6.08278 6.46968 6.14512 6.89099 6.30468 7.28003L6.34944 7.41337L5.35618 7.59678C4.93523 7.65274 4.53407 7.80789 4.18651 8.04914C3.83896 8.2904 3.5552 8.61068 3.35916 8.983C3.16311 9.35532 3.06053 9.76875 3.06007 10.1884C3.0596 10.6081 3.16126 11.0218 3.35648 11.3945L4.03972 12.9295L1.84256 13.7523C1.43616 13.8798 1.06685 14.1022 0.765903 14.4007C0.464954 14.6991 0.241231 15.0649 0.113683 15.4669C-0.013865 15.8689 -0.041481 16.2954 0.033174 16.7102C0.107829 17.125 0.282556 17.516 0.542556 17.8499L12.6697 35.573C12.9145 35.9439 13.2359 36.2596 13.6127 36.4993C13.9895 36.739 14.4133 36.8974 14.8563 36.9641C15.2994 37.0308 15.7517 37.0043 16.1836 36.8862C16.6156 36.7682 17.0175 36.5614 17.3629 36.2793L34.3024 22.8665L50.2118 18.8092C52.0515 18.3344 52.5583 16.7611 51.3255 15.3042Z" fill="white"/><path opacity="0.3" d="M0.541979 17.8512C0.281515 17.5175 0.106544 17.1265 0.0319729 16.7116C-0.0425988 16.2966 -0.0145616 15.87 0.113696 15.4681C0.241953 15.0662 0.46663 14.7009 0.768586 14.4032C1.07054 14.1056 1.44083 13.8845 1.8479 13.7588L23.1317 5.75873C25.2351 5.09689 27.5077 5.19135 29.5474 6.0254L42.6824 12.242C44.4155 13.0648 44.607 14.7051 43.1043 15.8954L17.3577 36.2735C17.0123 36.5556 16.6104 36.7624 16.1785 36.8804C15.7465 36.9984 15.2942 37.0249 14.8511 36.9583C14.4081 36.8916 13.9843 36.7332 13.6075 36.4935C13.2307 36.2537 12.9094 35.9381 12.6646 35.5671L0.541979 17.8512Z" fill="#CF3339"/><path opacity="0.4" d="M3.35654 11.3952C3.16024 11.0226 3.05771 10.6088 3.05762 10.1887C3.05753 9.76865 3.15988 9.35477 3.35601 8.9821C3.55214 8.60943 3.83627 8.28895 4.18434 8.0478C4.53241 7.80666 4.93416 7.65195 5.35557 7.59678L27.5379 3.46341C29.7102 3.18218 31.9129 3.67495 33.7509 4.85334L45.468 13.2846C47.0155 14.3968 46.9088 16.0482 45.2317 16.9549L16.5139 32.4867C16.1262 32.703 15.6965 32.8355 15.2531 32.8754C14.8098 32.9153 14.3629 32.8617 13.9421 32.7182C13.5213 32.5747 13.1361 32.3446 12.812 32.043C12.488 31.7413 12.2324 31.3752 12.0623 30.9687L3.35654 11.3952Z" fill="#CF3339"/><path opacity="0.5" d="M6.30596 7.27482C6.14688 6.88576 6.0849 6.46457 6.12526 6.04685C6.16562 5.62913 6.30713 5.22714 6.53784 4.87485C6.76855 4.52256 7.08169 4.23031 7.45078 4.02279C7.81988 3.81528 8.23411 3.69859 8.65847 3.68259L31.1409 1.7138C33.3321 1.64435 35.4767 2.34805 37.1907 3.69885L48.0409 13.2241C49.4706 14.4807 49.206 16.1159 47.4557 16.8554L17.3708 29.5384C16.9626 29.7159 16.521 29.8059 16.0751 29.8024C15.6292 29.7989 15.1891 29.702 14.7838 29.5181C14.3786 29.3342 14.0174 29.0674 13.7241 28.7355C13.4309 28.4036 13.2121 28.014 13.0824 27.5924L6.30596 7.27482Z" fill="#CF3339"/><path d="M10.9427 3.20975C10.8418 2.80228 10.842 2.37673 10.9435 1.96937C11.0449 1.56202 11.2445 1.18494 11.5253 0.870299C11.8061 0.555654 12.1598 0.312772 12.5561 0.162359C12.9524 0.0119463 13.3797 -0.0415356 13.8014 0.00647308L36.3233 1.40746C38.5034 1.66426 40.5201 2.67861 42.0131 4.26927L51.327 15.3016C52.5592 16.7585 52.051 18.3318 50.208 18.8047L18.5808 26.8698C18.1502 26.9836 17.7001 27.0064 17.2599 26.9364C16.8198 26.8665 16.3996 26.7056 16.0268 26.4641C15.654 26.2226 15.337 25.906 15.0965 25.5351C14.856 25.1642 14.6976 24.7473 14.6314 24.3117L10.9427 3.20975Z" fill="#CF3339"/><path d="M17.6954 8.96522C17.6871 8.86132 17.7025 8.75691 17.7404 8.65966C17.7783 8.56241 17.8379 8.4748 17.9146 8.40327C18.081 8.27466 18.2887 8.20955 18.4997 8.21986C18.6523 8.21802 18.8043 8.23997 18.95 8.28489C19.0849 8.32912 19.1751 8.36294 19.2198 8.3792V12.1327C19.4338 11.9161 19.6984 11.6488 20.0248 11.3321C20.3513 11.0153 20.6778 10.6927 21.0122 10.3701C21.3466 10.0475 21.6652 9.74767 21.9633 9.46929C22.2615 9.19091 22.4899 8.98019 22.6558 8.83514C22.8413 8.67725 23.0349 8.52876 23.2357 8.39026C23.4229 8.27056 23.6428 8.21041 23.8656 8.2179C24.1011 8.20743 24.3339 8.2717 24.5298 8.40131C24.6527 8.48199 24.7635 8.57944 24.8589 8.69075C24.8135 8.73498 24.7068 8.841 24.5298 9.0075C24.3527 9.17401 24.1348 9.37434 23.888 9.60784C23.6412 9.84133 23.37 10.0969 23.0718 10.3753L22.1885 11.1981C21.8958 11.4652 21.6257 11.721 21.3782 11.9656C21.1247 12.2101 20.9227 12.4046 20.7594 12.5548C21.6092 13.3444 22.4083 14.151 23.1455 14.9568C23.8738 15.7511 24.5521 16.5886 25.1768 17.4648H23.2969C23.0777 17.1864 22.8072 16.8645 22.4919 16.497C22.1766 16.1295 21.8389 15.7575 21.473 15.3685C21.107 14.9796 20.7357 14.601 20.3421 14.2284C19.9485 13.8557 19.5713 13.5168 19.2054 13.2105V17.4642H17.6895V8.96522H17.6954Z" fill="white"/><path d="M28.8212 9.69366H26.266C26.1648 9.70933 26.0613 9.70145 25.9637 9.67065C25.8662 9.63985 25.7773 9.58697 25.704 9.51624C25.6308 9.44552 25.5752 9.35888 25.5418 9.26322C25.5084 9.16756 25.4981 9.06551 25.5116 8.96521C25.5104 8.80619 25.5371 8.64817 25.5906 8.49821C25.6413 8.35902 25.6808 8.26471 25.7032 8.22048H32.9963C33.0975 8.20482 33.201 8.21271 33.2985 8.24351C33.3961 8.27431 33.485 8.32717 33.5583 8.3979C33.6315 8.46863 33.687 8.55528 33.7204 8.65094C33.7538 8.7466 33.7642 8.84864 33.7507 8.94895C33.7538 9.10762 33.7291 9.26562 33.6776 9.41595C33.6512 9.51346 33.6113 9.60691 33.5591 9.69366H30.3404V17.4732H28.8212V9.69366Z" fill="white"/><path d="M41.461 16.8502C41.3655 16.9224 41.2359 17.0056 41.0726 17.1058C40.8739 17.2195 40.6648 17.3145 40.448 17.3894C40.1585 17.4897 39.8611 17.5659 39.5587 17.617C39.174 17.6827 38.784 17.7143 38.3936 17.7113C37.7825 17.7148 37.1758 17.6074 36.6039 17.3946C36.0344 17.1868 35.5159 16.8624 35.0823 16.4426C34.6487 16.0228 34.3099 15.5171 34.0882 14.9588C33.8251 14.2988 33.6969 13.5938 33.711 12.8846C33.6976 12.1764 33.8218 11.4723 34.077 10.8104C34.2978 10.2329 34.6368 9.70658 35.0729 9.26441C35.4927 8.84889 35.9946 8.52321 36.5473 8.30766C37.121 8.08622 37.7324 7.97581 38.3482 7.98246C38.8558 7.97152 39.3627 8.02575 39.8562 8.14376C40.1858 8.2236 40.4997 8.35701 40.785 8.53855C40.9785 8.66125 41.1404 8.82697 41.2576 9.02246C41.3344 9.14745 41.3806 9.28843 41.3925 9.43417C41.3931 9.55049 41.3707 9.6658 41.3267 9.77369C41.2842 9.87733 41.2275 9.97472 41.1582 10.0631C41.0997 10.1433 41.0336 10.2178 40.9607 10.2856C40.9059 10.3366 40.8454 10.3813 40.7804 10.4189C40.674 10.2985 40.5551 10.1895 40.4256 10.0937C40.2614 9.96836 40.085 9.85942 39.899 9.76848C39.6793 9.66236 39.4493 9.57847 39.2125 9.51807C38.9405 9.44925 38.6606 9.41558 38.3798 9.41792C37.9628 9.41471 37.5495 9.4941 37.1641 9.65141C36.7922 9.80496 36.4609 10.0408 36.1958 10.3408C35.9131 10.6611 35.6937 11.0308 35.5488 11.4309C35.3849 11.8973 35.3049 12.3884 35.3125 12.882C35.3036 13.3766 35.3875 13.8686 35.56 14.3331C35.7097 14.7269 35.9419 15.085 36.2412 15.3841C36.5325 15.6671 36.8817 15.8852 37.2654 16.0235C37.6709 16.1705 38.1 16.2439 38.5319 16.2401C39.002 16.2503 39.4702 16.1769 39.9141 16.0235C40.2131 15.9231 40.4985 15.7868 40.7639 15.6176L41.4393 16.8463L41.461 16.8502Z" fill="white"/></g><defs><clipPath id="clip0"><rect width="52" height="37" fill="white"/></clipPath></defs></svg>