<svg width="30" height="20" viewBox="0 0 30 20" fill="none" xmlns="http://www.w3.org/2000/svg"><path d="M20.0004 0.389618C18.8054 0.389618 17.622 0.640281 16.518 1.12729C15.4139 1.61431 14.4107 2.32814 13.5657 3.22802C12.7207 4.1279 12.0504 5.19622 11.5931 6.37198C11.1358 7.54773 10.9004 8.8079 10.9004 10.0805C10.9004 11.3532 11.1358 12.6133 11.5931 13.7891C12.0504 14.9648 12.7207 16.0332 13.5657 16.933C14.4107 17.8329 15.4139 18.5467 16.518 19.0338C17.622 19.5208 18.8054 19.7714 20.0004 19.7714C21.1954 19.7714 22.3787 19.5208 23.4828 19.0338C24.5869 18.5467 25.59 17.8329 26.4351 16.933C27.2801 16.0332 27.9504 14.9648 28.4077 13.7891C28.865 12.6133 29.1004 11.3532 29.1004 10.0805C29.1004 8.8079 28.865 7.54773 28.4077 6.37198C27.9504 5.19622 27.2801 4.1279 26.4351 3.22802C25.59 2.32814 24.5869 1.61431 23.4828 1.12729C22.3787 0.640281 21.1954 0.389618 20.0004 0.389618Z" fill="#FF9800"/><path d="M9.6 0.389618C8.40497 0.389618 7.22164 0.640281 6.11758 1.12729C5.01352 1.61431 4.01034 2.32814 3.16533 3.22802C2.32032 4.1279 1.65001 5.19622 1.1927 6.37198C0.735379 7.54773 0.5 8.8079 0.5 10.0805C0.5 11.3532 0.735379 12.6133 1.1927 13.7891C1.65001 14.9648 2.32032 16.0332 3.16533 16.933C4.01034 17.8329 5.01352 18.5467 6.11758 19.0338C7.22164 19.5208 8.40497 19.7714 9.6 19.7714C10.795 19.7714 11.9784 19.5208 13.0824 19.0338C14.1865 18.5467 15.1897 17.8329 16.0347 16.933C16.8797 16.0332 17.55 14.9648 18.0073 13.7891C18.4646 12.6133 18.7 11.3532 18.7 10.0805C18.7 8.8079 18.4646 7.54773 18.0073 6.37198C17.55 5.19622 16.8797 4.1279 16.0347 3.22802C15.1897 2.32814 14.1865 1.61431 13.0824 1.12729C11.9784 0.640281 10.795 0.389618 9.6 0.389618Z" fill="#D50000"/><path d="M10.9004 10.0805C10.9004 13.372 12.4448 16.2758 14.8004 18.0271C17.156 16.2758 18.7004 13.372 18.7004 10.0805C18.7004 6.78907 17.156 3.88526 14.8004 2.13397C12.4448 3.88526 10.9004 6.78907 10.9004 10.0805Z" fill="#FF3D00"/></svg>