<svg width="46" height="46" viewBox="0 0 46 46" fill="none" xmlns="http://www.w3.org/2000/svg"><path d="M42 0H4C1.79086 0 0 1.79086 0 4V42C0 44.2091 1.79086 46 4 46H42C44.2091 46 46 44.2091 46 42V4C46 1.79086 44.2091 0 42 0Z" fill="#4E2E7F"/><path d="M10.1753 33.0784C12.2913 34.0674 14.4073 35.0794 16.5233 36.0914C16.6153 36.1604 16.7763 36.1604 16.8913 36.1604C18.5013 36.1604 20.1113 36.1604 21.7213 36.1604C21.9973 36.1604 22.0433 36.0684 22.0433 35.8154C22.0203 34.3894 22.0433 32.9634 22.0433 31.5374C22.0433 31.4454 22.0203 31.3994 22.0203 31.2614C21.9053 31.3304 21.7903 31.3534 21.6983 31.3994C20.2263 32.0434 18.7083 32.5724 17.0523 32.3654C16.4083 32.2734 15.8333 32.0664 15.3503 31.6064C14.4993 30.8014 14.2693 29.7434 14.2463 28.6394C14.2233 27.7194 14.3153 26.7994 14.4303 25.8794C14.5453 24.7984 14.8213 23.7634 15.2813 22.7744C16.5003 20.0834 18.2943 17.7834 20.4103 15.7594C21.1003 15.0924 21.9283 14.5634 22.7103 13.9654C22.8943 13.8274 23.0783 13.8274 23.2853 13.9654C23.9063 14.4254 24.5503 14.8394 25.1253 15.3224C26.6203 16.6334 27.8853 18.1284 28.9893 19.7614C30.1163 21.3944 31.0593 23.1424 31.4273 25.1204C31.7033 26.5694 31.8873 28.0414 31.6343 29.5134C31.2663 31.4914 30.0933 32.3424 28.3223 32.3884C27.4483 32.4114 26.5973 32.2274 25.7693 31.9284C25.1713 31.7214 24.5733 31.4684 23.9753 31.2384C23.9753 31.3304 23.9753 31.3764 23.9753 31.4454C23.9753 32.8714 23.9753 34.2974 23.9753 35.7004C23.9753 35.9994 24.0673 36.0684 24.3663 36.0684C25.9303 36.0454 27.4713 36.0684 29.0353 36.0454C29.2423 36.0454 29.4493 35.9764 29.6333 35.9074C31.6803 34.9414 33.7273 33.9524 35.7513 32.9864C36.1653 32.7794 36.1653 32.8024 36.0503 32.3424C34.9003 27.8344 33.7733 23.3494 32.6233 18.8414C32.5773 18.7034 32.5083 18.5424 32.3703 18.4044C31.9103 17.9444 31.4273 17.5074 30.9673 17.0704C30.0703 16.2424 29.1733 15.4144 28.2533 14.5864C27.0343 13.4824 25.8383 12.4014 24.6193 11.2744C24.1593 10.8374 23.6533 10.4004 23.1933 9.94039C23.0323 9.80239 22.9173 9.80239 22.7563 9.96339C22.5493 10.1704 22.3193 10.3544 22.1123 10.5384C21.1693 11.4124 20.2263 12.2864 19.2833 13.1374C18.2713 14.0574 17.2823 14.9774 16.2473 15.8974C15.5113 16.5644 14.7753 17.2314 14.0393 17.8984C13.7633 18.1744 13.4183 18.4044 13.3033 18.8414C12.1763 23.3264 11.0493 27.8344 9.89933 32.3194C9.85333 32.8024 9.89933 32.9634 10.1753 33.0784Z" fill="white"/></svg>