<svg width="46" height="46" viewBox="0 0 46 46" fill="none" xmlns="http://www.w3.org/2000/svg"><path d="M42 0H4C1.79086 0 0 1.79086 0 4V42C0 44.2091 1.79086 46 4 46H42C44.2091 46 46 44.2091 46 42V4C46 1.79086 44.2091 0 42 0Z" fill="#FC4F1F"/><path d="M31.4404 22.333C30.9574 22.011 30.4284 21.758 29.8994 21.574C28.0594 20.93 27.5764 21.091 26.6104 22.816C25.8974 24.081 25.2764 25.369 24.5634 26.634C24.2644 27.186 23.9194 27.738 23.4594 28.175C21.0674 30.544 18.0544 30.958 14.8574 30.751C15.8234 30.199 16.4674 29.371 17.0194 28.428C17.7324 27.186 18.4454 25.921 19.1124 24.633C19.8484 23.23 20.8834 22.149 22.3324 21.482C22.5854 21.367 22.8154 21.275 23.0684 21.183C23.0454 21.16 23.0454 21.137 23.0224 21.114C22.9534 21.114 22.8844 21.114 22.8154 21.114C19.3424 21.62 16.0764 22.678 13.1324 24.633C11.8444 25.461 10.7174 26.473 9.91242 27.807C8.78542 29.693 9.29142 31.602 11.2464 32.591C11.9134 32.936 12.6494 33.189 13.3624 33.373C15.6854 33.925 18.0314 33.787 20.3544 33.373C23.5744 32.798 26.6334 31.717 29.3474 29.854C30.6354 28.98 31.8084 27.945 32.5214 26.496C33.3264 24.909 32.9354 23.345 31.4404 22.333Z" fill="white"/><path opacity="0.7" d="M38.019 14.122C33.166 14.122 28.29 14.099 23.437 14.145C22.08 14.145 20.7 14.26 19.343 14.467C17.158 14.789 15.111 15.571 13.432 17.066C12.581 17.802 11.914 18.699 11.5 19.826C11.753 19.849 11.914 19.872 12.098 19.872C17.365 19.872 22.655 19.895 27.922 19.849C30.337 19.826 32.706 19.389 34.868 18.262C36.616 17.365 37.927 16.077 38.778 14.122C38.433 14.122 38.226 14.122 38.019 14.122Z" fill="white"/></svg>