<svg width="46" height="46" viewBox="0 0 46 46" fill="none" xmlns="http://www.w3.org/2000/svg"><path d="M42 0H4C1.79086 0 0 1.79086 0 4V42C0 44.2091 1.79086 46 4 46H42C44.2091 46 46 44.2091 46 42V4C46 1.79086 44.2091 0 42 0Z" fill="#0B3979"/><path d="M21.8497 11.201V21.735H24.1267V11.201C24.1267 10.488 24.7017 9.89001 25.3917 9.89001C26.0817 9.89001 26.6567 10.488 26.6567 11.201V21.735H28.9337V11.201C28.9337 10.488 29.5087 9.89001 30.1987 9.89001C30.8887 9.89001 31.4637 10.488 31.4637 11.201V21.735H34.7757C35.5117 21.735 36.0867 22.287 36.0867 23C36.0867 23.69 35.4887 24.265 34.7757 24.265H31.4637V34.799C31.4637 35.512 30.8887 36.11 30.1987 36.11C29.5087 36.11 28.9337 35.512 28.9337 34.799V24.265H26.6567V34.799C26.6567 35.512 26.0817 36.11 25.3917 36.11C24.7017 36.11 24.1267 35.512 24.1267 34.799V24.265H21.8497V34.799C21.8497 35.512 21.2747 36.11 20.5847 36.11C19.8947 36.11 19.3197 35.512 19.3197 34.799V24.265H17.0427V34.799C17.0427 35.512 16.4677 36.11 15.7777 36.11C15.0877 36.11 14.5127 35.512 14.5127 34.799V24.265H11.2006C10.4646 24.265 9.88965 23.69 9.88965 23C9.88965 22.31 10.4646 21.735 11.2006 21.735H14.5127V11.201C14.5127 10.488 15.0877 9.89001 15.7777 9.89001C16.4677 9.89001 17.0427 10.488 17.0427 11.201V21.735H19.3427V11.201C19.3427 10.488 19.9177 9.89001 20.6077 9.89001C21.2977 9.89001 21.8497 10.488 21.8497 11.201Z" fill="white"/></svg>