<svg width="29" height="22" viewBox="0 0 29 22" fill="none" xmlns="http://www.w3.org/2000/svg"><path d="M28.2502 18.6948C28.2502 20.2239 27.086 21.4636 25.6502 21.4636H3.5502C2.11435 21.4636 0.950195 20.2239 0.950195 18.6948V3.46622C0.950195 1.93713 2.11435 0.697388 3.5502 0.697388H25.6502C27.086 0.697388 28.2502 1.93713 28.2502 3.46622V18.6948Z" fill="#1565C0"/><path d="M8.87074 7.61947L7.16384 13.0408C7.16384 13.0408 6.73029 10.7476 6.68739 10.4596C5.71564 8.09847 4.28174 8.22999 4.28174 8.22999L5.97174 15.2338V15.2324H8.02639L10.8675 7.61947H8.87074ZM10.4977 15.2338H12.3638L13.4922 7.61947H11.6027L10.4977 15.2338ZM23.705 7.61947H21.7414L18.6799 15.2338H20.5337L20.9159 14.1463H23.2533L23.4522 15.2338H25.1506L23.705 7.61947ZM21.4333 12.692L22.4492 9.81446L22.9809 12.692H21.4333ZM16.1397 9.83868C16.1397 9.41921 16.4634 9.10702 17.3916 9.10702C17.9948 9.10702 18.6857 9.57357 18.6857 9.57357L18.9886 7.97526C18.9886 7.97526 18.1059 7.61877 17.2395 7.61877C15.2771 7.61877 14.2651 8.61832 14.2651 9.88368C14.2651 12.1721 16.8514 11.8585 16.8514 13.0339C16.8514 13.2353 16.7013 13.7012 15.6242 13.7012C14.5439 13.7012 13.8309 13.2796 13.8309 13.2796L13.5091 14.8136C13.5091 14.8136 14.2001 15.2331 15.5352 15.2331C16.8735 15.2331 18.7299 14.1671 18.7299 12.6359C18.7299 10.7939 16.1397 10.661 16.1397 9.83868Z" fill="white"/><path d="M6.93772 11.7347L6.30982 8.44806C6.30982 8.44806 6.02577 7.73578 5.28737 7.73578C4.54897 7.73578 2.40137 7.73578 2.40137 7.73578C2.40137 7.73578 6.08102 8.89315 6.93772 11.7347Z" fill="#FFC107"/></svg>