<svg id="SvgjsSvg1023" width="288" height="288" xmlns="http://www.w3.org/2000/svg" version="1.1" xmlns:xlink="http://www.w3.org/1999/xlink" xmlns:svgjs="http://svgjs.com/svgjs"><rect id="SvgjsRect1030" width="288" height="288" rx="38" ry="38" fill="#fef2ea" transform="matrix(0.9999999999999999,0,0,0.9999999999999999,2.842170943040401e-14,2.842170943040401e-14)"/><defs id="SvgjsDefs1024"/><g id="SvgjsG1025" transform="matrix(0.51,0,0,0.51,70.55999439239501,70.55999439239501)"><svg xmlns="http://www.w3.org/2000/svg" width="288" height="288" viewBox="0 0 20 16"><g fill="none" fill-rule="evenodd" transform="translate(-2 -4)"><polygon points="0 0 24 0 24 24 0 24" fill="#fef2ea" class="color000 svgShape"/><path fill="#ff8066" d="M10.59,4.59 C10.21,4.21 9.7,4 9.17,4 L4,4 C2.9,4 2.01,4.9 2.01,6 L2,18 C2,19.1 2.9,20 4,20 L20,20 C21.1,20 22,19.1 22,18 L22,8 C22,6.9 21.1,6 20,6 L12,6 L10.59,4.59 Z" class="color1D1D1D svgShape"/></g></svg></g></svg>