<svg id="SvgjsSvg1001" width="288" height="288" xmlns="http://www.w3.org/2000/svg" version="1.1" xmlns:xlink="http://www.w3.org/1999/xlink" xmlns:svgjs="http://svgjs.com/svgjs"><rect id="SvgjsRect1014" width="288" height="288" rx="38" ry="38" fill="#ffdee9" transform="matrix(1,0,0,1,0,0)" style="border-radius:8px"/><defs id="SvgjsDefs1002"/><g id="SvgjsG1008" transform="matrix(0.52,0,0,0.52,69.12,69.12401405364275)"><svg xmlns="http://www.w3.org/2000/svg" aria-hidden="true" class="svg-inline--fa fa-music fa-w-16" data-icon="music" data-prefix="fas" viewBox="0 0 512 512" width="288" height="288"><path fill="#ff528b" d="M470.38 1.51L150.41 96A32 32 0 0 0 128 126.51v261.41A139 139 0 0 0 96 384c-53 0-96 28.66-96 64s43 64 96 64 96-28.66 96-64V214.32l256-75v184.61a138.4 138.4 0 0 0-32-3.93c-53 0-96 28.66-96 64s43 64 96 64 96-28.65 96-64V32a32 32 0 0 0-41.62-30.49z" class="colorcurrentColor svgShape"/></svg></g></svg>